<svg xmlns="http://www.w3.org/2000/svg" xmlns:xlink="http://www.w3.org/1999/xlink" width="64" height="59.409" viewBox="0 0 64 59.409"><defs><style>.a{fill:url(#a);}</style><linearGradient id="a" x1="0.128" y1="0.245" x2="0.628" y2="1.241" gradientUnits="objectBoundingBox"><stop offset="0" stop-color="#c9060d"/><stop offset="0.295" stop-color="#ff4a3d"/><stop offset="0.603" stop-color="#fa0404"/><stop offset="0.615" stop-color="#f60405"/><stop offset="0.682" stop-color="#e10508"/><stop offset="0.758" stop-color="#d3060b"/><stop offset="0.85" stop-color="#cb060d"/><stop offset="1" stop-color="#c8060d"/></linearGradient></defs><path class="a" d="M8.117,66.425a.8.8,0,0,1-.368-.1.805.805,0,0,1-.276-1.06l26.867-49.7L55.967,55.586h8.367L38.736,8.223a.805.805,0,0,1,.276-1.06A.689.689,0,0,1,40,7.457l26.867,49.7H23.6l-4.174,7.737H70.642a.787.787,0,0,1,0,1.571H16.889l5.646-10.447s0-.02.018-.02L38.533,26.465l-4.193-7.776L8.742,66.032A.712.712,0,0,1,8.117,66.425Zm16.33-10.859H54.293L39.379,27.977Z" transform="translate(-7.377 -7.056)"/></svg>